<?xml version="1.0" encoding="utf-8"?>
<!-- Generator: Adobe Illustrator 22.0.1, SVG Export Plug-In . SVG Version: 6.00 Build 0)  -->
<svg version="1.1" id="icon-h-us-l" xmlns="http://www.w3.org/2000/svg" xmlns:xlink="http://www.w3.org/1999/xlink" x="0px"
	 y="0px" viewBox="0 0 6400 1024" style="enable-background:new 0 0 6400 1024;" xml:space="preserve">
<style type="text/css">
	.st0{fill:#F0B90B;}
</style>
<path class="st0" d="M231.1,511.4L115.5,626.9L0,511.4l115.5-115.5L231.1,511.4z M511.4,230.9l198,198l115.5-115.5L511.4,0
	L198,313.4l115.5,115.5L511.4,230.9L511.4,230.9z M907.3,395.9L791.8,511.4l115.5,115.5l115.4-115.5L907.3,395.9L907.3,395.9z
	 M511.4,791.8l-198-197.9L197.9,709.3l313.4,313.4l313.5-313.4L709.3,593.9L511.4,791.8L511.4,791.8z M511.4,626.9l115.5-115.5
	L511.4,395.9L395.9,511.4L511.4,626.9L511.4,626.9z M1730.4,638v-1.6c0-75.3-40-113-105-137.8c40-22.4,73.8-57.7,73.8-121V376
	c0-88.1-70.6-145.1-185.2-145.1h-260.3v560.9h266.8C1647.1,791.9,1730.5,740.6,1730.4,638L1730.4,638L1730.4,638z M1576.6,398.2
	c0,41.6-34.4,59.3-89,59.3H1374V339.1h121.8c52.1,0,80.9,20.8,80.9,57.6L1576.6,398.2L1576.6,398.2z M1607.8,622.6
	c0,41.6-32.8,60.8-87.3,60.8H1374V560.2h142.6c63.4,0,91.3,23.3,91.3,61L1607.8,622.6L1607.8,622.6z M1989.6,791.9V230.9h-123.8
	v560.9L1989.6,791.9L1989.6,791.9z M2653,791.9V230.9h-122.2v345.4l-262.9-345.4h-113.7v560.9h121.8V435.2l271.6,356.6L2653,791.9
	L2653,791.9z M3336.5,791.9l-240.8-564.9H2982l-240.4,564.9h125.8l51.5-125.8H3156l51.4,125.8L3336.5,791.9L3336.5,791.9z
	 M3112.1,557.1h-149.3l74.5-181.8L3112.1,557.1z M3924.7,791.9V230.9h-122.2v345.4l-262.9-345.4h-113.8v560.9h121.8V435.2
	l271.7,356.6L3924.7,791.9L3924.7,791.9z M4561.7,701.3l-78.5-79.4c-44.1,40-83.3,65.7-147.4,65.7c-96.1,0-162.7-80-162.7-176.3
	v-1.6c0-96.1,68.1-174.7,162.7-174.7c56,0,99.9,24,143.4,63.3l78.3-90.5c-52.1-51.2-115.4-86.5-221.1-86.5
	c-172.3,0-292.5,130.6-292.5,289.8v1.6c0,161.1,122.6,288.4,287.7,288.4c107.9,0.3,172.1-38.1,229.7-99.8L4561.7,701.3L4561.7,701.3
	z M5088.2,791.9V681.9h-304.8v-118h264.4V454h-264.4V340.7h300.4V230.8h-423v560.9L5088.2,791.9L5088.2,791.9z M5235.4,791.9v-84.2
	h73.8v84.2H5235.4L5235.4,791.9z M5884.6,552.2c0,163.5-93.8,248.5-234.1,248.5s-233.7-84.9-233.7-243.7V230.7h63.3V553
	c0,121,64,189.1,171.6,189.1c103.4,0,169.2-62.5,169.2-185.2V230.7h63.4L5884.6,552.2L5884.6,552.2z M6217.1,480.8
	c125.1,27.3,182.9,73,182.9,159.8c0,97-80,159.9-191.7,159.9c-89,0-162-30-229.8-89.9l39.8-46.8c58.5,52.9,114.6,79.4,192.4,79.4
	c75.4-0.3,125.3-39.4,125.3-96.3c0-53-28.1-82.6-146-107.5c-129.1-28.1-188.5-70-188.5-162.8c0-89.9,77.8-153.9,184.4-153.9
	c72-2.1,142.2,22.5,197.2,68.9l-37.3,48.9c-52.1-42.5-104.2-61-162-61c-72.9,0-119.9,40-119.9,91.4
	C6064.7,424.7,6093.6,454,6217.1,480.8L6217.1,480.8z"/>
</svg>
