<?xml version="1.0" encoding="utf-8"?>
<!-- Generator: Adobe Illustrator 22.1.0, SVG Export Plug-In . SVG Version: 6.00 Build 0)  -->
<svg version="1.1" id="Layer_1" xmlns="http://www.w3.org/2000/svg" xmlns:xlink="http://www.w3.org/1999/xlink" x="0px" y="0px"
	 viewBox="0 0 688 150" style="enable-background:new 0 0 688 150;" xml:space="preserve">
<style type="text/css">
	.st0{fill:#FFFFFF;}
</style>
<g>
	<path class="st0" d="M201.6,8.7c-7.2,0-13.5,5.9-13.5,13.3c0,7.6,6.3,13.7,13.5,13.7c7.2,0,13.5-6.1,13.5-13.7
		C215.1,14.6,208.8,8.7,201.6,8.7z"/>
	<path class="st0" d="M275.4,49.3c-14.1,0-30.7,3-44.1,8.3v90.2h21.5V71.7c5.7-1.7,13.3-2.8,20.9-2.8c12,0,20.7,5,20.7,18.9v60h21.3
		v-62C315.6,58.7,300,49.3,275.4,49.3z"/>
	<rect x="191" y="51.5" class="st0" width="21.5" height="96.3"/>
	<path class="st0" d="M127.5,49.3C98.8,49.3,78,69.8,78,99.8c0,29.8,20.9,50.2,49.6,50.2c28.9,0,49.8-20.4,49.8-50.2
		C177.3,69.8,156.4,49.3,127.5,49.3z M127.5,131.5c-16.1,0-27.8-12.4-27.8-31.7c0-19.6,11.7-32,27.8-32c16.5,0,28,12.4,28,32
		C155.6,119.1,144,131.5,127.5,131.5z"/>
	<path class="st0" d="M53.5,131.1c-18.7,0-31.7-12.2-31.7-31.3c0-20.2,13.5-31.3,30.9-31.3c5.1,0,10.1,0.9,14.9,2.8
		c2.3-5.7,5.4-10.9,9.1-15.5c-8-4.3-15.9-6.5-26-6.5C22.4,49.3,0,68.7,0,99.8C0,130.7,21.3,150,50.7,150c9.9,0,18.9-2.1,27.6-6.7
		c-3.9-4.4-7.2-9.4-9.7-15C63.8,130.1,58.8,131.1,53.5,131.1z"/>
	<path class="st0" d="M377.1,49.3c-8.5,0-17.4,2.4-22,4.8V0h-21.5v143.7c9.8,3.5,22,6.3,35.9,6.3c35.6,0,56.3-20.9,56.3-52
		C425.8,67.2,405,49.3,377.1,49.3z M370.2,131.5c-5.4,0-10.9-0.7-15-2V73.3c4.4-2.4,10.9-4.6,19.4-4.6c16.3,0,29.6,11.1,29.6,29.8
		C404.1,120.7,390,131.5,370.2,131.5z"/>
	<path class="st0" d="M473,49.3c-12,0-22.8,3-31.3,7.8v18.7c8-4.6,16.7-7.8,27.8-7.8c10.6,0,18.5,4.8,18.5,15.2v8.1h-10.7
		c-27.8,0-44.6,9.6-44.6,29.1c0,21.7,18.3,29.4,43.3,29.4c10.9,0,23.9-1.5,33-3.9V82.2C509.1,58,494.1,49.3,473,49.3z M488,132.6
		c-3.9,0.7-8.5,1.1-11.7,1.1c-13,0-22.2-3.9-22.2-13.9c0-9.8,9.8-14.1,24.8-14.1h9.1V132.6z"/>
	<path class="st0" d="M559.3,90.2c-11.1-3-15.2-6.3-15.2-12.6c0-6.3,5-10.9,14.3-10.9c10.2,0,18.5,3.7,27,9.8V56.7
		c-8-5-16.7-7.4-27.6-7.4c-19.6,0-34.3,9.6-34.3,29.1c0,16.7,8.5,24.8,28.5,29.3c12.4,3.3,18,6.1,18,13.9c0,7.6-6.3,10.9-15.9,10.9
		c-9.8,0-20.4-4.1-29.3-10.9v20.4c7.2,4.8,18.5,7.8,29.8,7.8c20.9,0,36.3-9.1,36.3-29.3C590.8,103.3,581.3,95,559.3,90.2z"/>
	<path class="st0" d="M687.2,104.6V93.7c0-26.3-13.3-44.3-41.3-44.3c-26.5,0-46.5,20.4-46.5,51.1c0,30.4,20.4,49.6,50.4,49.6
		c12.4,0,25.2-2.8,33.9-8.9v-18.9c-9.6,6.3-19.1,9.3-32.4,9.3c-15,0-29.8-9.3-31.1-26.5v-0.4H687.2z M645.3,67.4
		c13.9,0,21.3,8.3,21.7,23.3h-46.1C623.8,76.1,632.9,67.4,645.3,67.4z"/>
</g>
</svg>
