<?xml version="1.0" encoding="utf-8"?>
<!-- Generator: Adobe Illustrator 22.0.1, SVG Export Plug-In . SVG Version: 6.00 Build 0)  -->
<svg version="1.1" id="Layer_1" xmlns="http://www.w3.org/2000/svg" xmlns:xlink="http://www.w3.org/1999/xlink" x="0px" y="0px"
	 viewBox="0 0 1366 404" style="enable-background:new 0 0 1366 404;" xml:space="preserve">
<style type="text/css">
	.st0{fill:#FFFFFF;}
</style>
<g id="Layer_2_1_">
</g>
<g>
	<g>
		<path class="st0" d="M176.8,45.1V30h-76.2C76,30,58,35,46.7,45C35.4,55,29.8,69.8,29.8,89.5c0,19.9,5.6,34.5,16.8,44.1
			c11.2,9.5,29.1,14.3,53.8,14.3h105.9v29.5H99.2c-17.3,0-32.2-1.6-44.6-4.8c-12.4-3.2-22.7-8.3-30.8-15.3c-8.1-7-14.1-16-18-27.1
			C2,119,0,105.6,0,89.8c0-30.5,8-53.1,24.1-67.6C40.1,7.7,65.3,0.5,99.5,0.5h106.8v44.6L176.8,45.1L176.8,45.1z"/>
		<path class="st0" d="M396,30H239.6V0.5h155.5c8.6,0,16,1.2,22.5,3.5c6.4,2.3,11.7,5.5,15.9,9.5c4.2,4,7.3,8.7,9.5,14.1
			c2.1,5.5,3.2,11.2,3.2,17.2v14.9c0,5.6-1.1,11.1-3.2,16.3c-2.1,5.2-5.3,9.9-9.5,14c-4.2,4.1-9.5,7.4-15.9,9.9
			c-6.4,2.5-13.9,3.8-22.5,3.8h-22.2l72.7,73.5h-38.8l-75.3-73.5h-62.4v73.5h-29.5v-103H396c6.4,0,11.5-1.9,15.2-5.7
			c3.7-3.8,5.6-9.4,5.6-16.8c0-7.4-1.9-12.9-5.6-16.5C407.5,31.8,402.4,30,396,30z"/>
		<path class="st0" d="M500.2,0.5l51.4,55.2L531.1,77L459.9,0.5H500.2z M547.2,83.9l76.7-83.5h40.3l-87.5,95.1v81.7h-29.5V83.9z"/>
		<path class="st0" d="M845.4,30H689V0.5h155.5c8.6,0,16,1.2,22.5,3.5c6.4,2.3,11.7,5.5,15.9,9.5c4.2,4,7.3,8.7,9.5,14.1
			c2.1,5.5,3.2,11.2,3.2,17.2v14.9c0,5.6-1.1,11.1-3.2,16.3c-2.1,5.2-5.3,9.9-9.5,14c-4.2,4.1-9.5,7.4-15.9,9.9
			c-6.4,2.5-13.9,3.8-22.5,3.8H718.5v73.5H689v-103h156.4c6.4,0,11.5-1.9,15.2-5.7c3.7-3.8,5.6-9.4,5.6-16.8
			c0-7.4-1.9-12.9-5.6-16.5C856.9,31.8,851.8,30,845.4,30z"/>
		<path class="st0" d="M1135.2,0.5V30h-88.4v147.4h-29.5V30h-88.4V0.5H1135.2z"/>
		<path class="st0" d="M1256.6,177.3c-17.3,0-32.2-1.6-44.6-4.8s-22.7-8.3-30.8-15.3c-8.1-7-14.1-16-18-27.1
			c-3.9-11.1-5.8-24.5-5.8-40.3c0-30.5,8-53.1,24.1-67.6c16-14.5,41.2-21.7,75.4-21.7h9.6c34,0,59.1,7.3,75.3,21.7
			c16.1,14.5,24.2,37,24.2,67.6c0,15.8-2,29.2-5.8,40.3c-3.9,11.1-9.9,20.1-18,27.1c-8.1,7-18.4,12.1-30.9,15.3
			c-12.5,3.2-27.4,4.8-44.5,4.8H1256.6z M1258,30c-24.7,0-42.7,5-54,15c-11.3,10-16.9,24.8-16.9,44.5c0,19.9,5.6,34.5,16.8,44.1
			c11.2,9.5,29.1,14.3,53.8,14.3h7.9c24.7,0,42.7-4.7,53.8-14.1c11.2-9.4,16.8-24.1,16.8-43.9c0-19.4-5.6-34.2-16.8-44.4
			c-11.2-10.1-28.8-15.3-53-15.5L1258,30L1258,30z"/>
	</g>
	<path class="st0" d="M904.2,403.5c73.2,0.5,141.9-14.7,184-43.2c67.2-45.5,51.5-116.4-34.8-79.5C992.5,306.9,959.6,385,904.2,403.5
		L904.2,403.5z M1033.3,277.4l-81.4-149c-9.5-5.2-19-10.5-28.4-15.7c-23-12.7-24.5-5.4-35.3,16.1L847,210.3l91.7-76.6l-28.8,35.9
		l-33,174.5l-6.2,32.6l-0.8-32.4c-9.9,0.2-19.7-0.5-29.2-2.2c-84.5-15.1-68.3,43.7,1.6,58.5C935.1,420.3,961.4,320.1,1033.3,277.4
		L1033.3,277.4z"/>
	<g>
		<path class="st0" d="M417.1,277.2l-14.4,25l-11,19.1l-11-19.1l-53.4-92.5h22l42.4,73.4l14.4-25l-28-48.5h22l17,29.4l17-29.4h22
			l-28,48.5l14.4,25l42.4-73.4h22l-53.4,92.5l-11,19.1l-11-19.1L417.1,277.2z"/>
		<path class="st0" d="M577.8,228.7h-71.7v-19.1h113.4l-77.2,88.9H614v19.1H500.6L577.8,228.7z"/>
		<path class="st0" d="M639.4,254.9v62.8h-19v-108h76.2c8.8,0,16.3,3.1,22.5,9.3c6.2,6.2,9.3,13.7,9.3,22.5c0,8.8-3.1,16.3-9.3,22.5
			c-6.2,6.2-13.7,9.3-22.5,9.3h-11.9l44.5,44.5h-26.9L639.4,254.9z M639.4,228.7v25.4h57.2c3.5,0,6.5-1.2,9-3.7
			c2.5-2.5,3.7-5.5,3.7-9c0-3.5-1.2-6.5-3.7-9c-2.5-2.5-5.5-3.7-9-3.7L639.4,228.7L639.4,228.7z"/>
		<path class="st0" d="M842.7,285.9c0,8.8-3.1,16.3-9.3,22.5c-6.2,6.2-13.7,9.3-22.5,9.3h-76.2v-108H811c8.8,0,16.3,3.1,22.5,9.3
			s9.3,13.7,9.3,22.5V285.9z M811,298.6c3.5,0,6.5-1.2,9-3.7c2.5-2.5,3.7-5.5,3.7-9v-44.5c0-3.5-1.2-6.5-3.7-9
			c-2.5-2.5-5.5-3.7-9-3.7h-57.2v69.9L811,298.6L811,298.6z"/>
	</g>
</g>
</svg>
