<?xml version="1.0" encoding="utf-8"?>
<!-- Generator: Adobe Illustrator 22.0.1, SVG Export Plug-In . SVG Version: 6.00 Build 0)  -->
<svg version="1.1" id="layer" xmlns="http://www.w3.org/2000/svg" xmlns:xlink="http://www.w3.org/1999/xlink" x="0px" y="0px"
	 viewBox="0 0 652 95" style="enable-background:new 0 0 652 95;" xml:space="preserve">
<style type="text/css">
	.st0{fill:#5741D9;}
</style>
<g>
	<path id="_x23_0da8ffff_1_" class="st0" d="M80.6,0.1c10.5-0.7,21.1,1.4,30.5,6.1c13.9,6.8,25,19.1,30.1,33.6
		c2.3,6.4,3.5,13.2,3.5,20v25.3c0,1,0,2.1-0.2,3.1c-0.6,2.5-2.4,4.8-4.8,5.9c-1.7,0.8-3.6,0.9-5.3,0.6c-3.8-0.7-6.8-4.3-6.8-8.3
		c0-7.9,0-15.7,0-23.6c0.1-2.2,0.1-4.6-1.1-6.5c-1.9-3.6-6.7-5.3-10.5-3.8c-3.2,1.1-5.5,4.4-5.6,7.9c0,8,0,15.9,0,23.9
		c0,1.5,0.1,3-0.4,4.4c-0.8,2.8-3.1,5-5.9,5.8c-3.7,1-8-0.6-9.8-4c-1.3-2-1.2-4.5-1.1-6.8c0-8,0-15.8,0-23.8c-0.1-4-3.4-7.6-7.3-8.2
		c-2.6-0.4-5.3,0.5-7.2,2.3c-1.7,1.6-2.6,3.9-2.6,6.2v23c0,1.9,0.2,3.9-0.5,5.7c-1.1,3.3-4.4,5.7-8,5.6c-3.6,0.2-7.1-2.3-8.3-5.6
		c-0.6-1.7-0.5-3.4-0.5-5.2c0-8,0-15.9,0-23.9c0-3.9-3.1-7.5-6.9-8.3c-3.5-0.7-7.3,1-9.2,4.2c-0.7,1.3-1.1,2.8-1.1,4.3v25.9
		c0,2.5-1.1,5-3,6.6c-2.9,2.5-7.6,2.7-10.7,0.4c-2.2-1.5-3.5-4.1-3.5-6.8V60.3c0-9.9,2.5-19.7,7.2-28.5c3.8-7.1,9.2-13.5,15.5-18.5
		C56.3,5.5,68.3,0.8,80.6,0.1L80.6,0.1z"/>
	<path class="st0" d="M315.8,30.1h-13.1c0.5-9.2,2.4-17.4,10.8-22.6c8.4-5.1,17.5-6.3,27.1-5.5c5.1,0.4,10.3,1.5,15,3.7
		C363.9,9.5,368,16,368,25.2c0,16.2,0,32.4,0,48.6c0,5.9,1.2,7,7.1,6.4c0.6-0.1,1.3-0.2,1.9-0.3c0.1,0.3,0.1,0.6,0.1,0.8v9.9
		c-4.7,1.6-9.6,2.1-14.3,0.8c-3.5-1-5.7-3.5-6.9-6.8c-0.6-1.7-1-3.5-1.5-5.4c-0.5,0.6-0.9,1.1-1.4,1.6
		c-10.4,10.5-22.6,14.9-37.1,11.2c-10.3-2.6-17.3-12-17.6-22.6c-0.1-3.4,0.2-6.8,1-10.2c1.9-7.6,7.3-12.3,14.2-15.4
		c4.8-2.2,10.1-2.8,15.3-3.5c6.1-0.8,12.2-1.5,18.3-2.4c4.1-0.6,6.2-2.8,6.8-6.9c1.3-8.4-2.4-13.9-10.5-15.9
		c-4.8-1.2-9.8-1.4-14.7-0.5c-7.2,1.3-11.3,5.4-12.7,12.6C316.2,28,316,29,315.8,30.1L315.8,30.1z M354.3,46.2
		c-6,3.2-11.9,4-17.8,4.9c-4.9,0.8-10,1.5-14.8,3c-6.3,2.1-9.3,7.3-8.7,14.4c0.5,5.8,4.4,10.6,10.8,11.6c9.8,1.6,18.4-1.1,25.3-8.4
		c2-2.1,3.6-5.1,4-8C354,58.2,353.9,52.5,354.3,46.2z M540.8,63.1c-0.3,1.4-0.5,2.6-0.8,3.7c-5.6,17.2-17.1,24.6-31,26.2
		c-24.1,2.6-37.8-13.1-41.4-29.8c-2.8-13.3-2.4-26.5,3.4-39c5.5-11.8,14.4-19.5,27.6-21.8c15.8-2.8,38.1,5,41.9,29.7
		c1,6.3,1.2,12.9,1.8,19.5h-61.2c0.5,9.1,1.9,17.5,8.6,24.1c2.7,2.7,6.2,4,10.1,4.7c12.4,2.2,22.6-3.7,26.7-15.7
		c0.4-1.3,1-1.7,2.3-1.6C532.7,63.1,536.6,63.1,540.8,63.1L540.8,63.1z M481.7,40h45.8c-0.5-5.3-1.4-10.3-3.9-14.9
		c-2.4-4.4-5.9-7.6-10.8-9.3C497,10.4,480.6,23,481.7,40z M573.7,90.1h-13.9V3.7H573v12.1c1-1.1,1.6-1.8,2.2-2.5
		C584.7,2.5,596.6-0.3,610.1,3c9.4,2.3,14.6,9,16.4,18.2c0.7,3.8,1.2,7.8,1.2,11.6c0.1,18.5,0.1,37,0.1,55.6c0,0.5-0.1,1-0.1,1.6
		h-14.2v-2.3c0-17.3,0.1-34.6-0.1-51.9c0-3.8-0.6-7.8-1.7-11.5c-1.8-6-6.6-9.3-13-9.6c-11.6-0.4-20.7,5.7-23.6,16
		c-1,3.7-1.3,7.6-1.3,11.6c-0.1,15.2-0.1,30.3-0.1,45.3V90.1L573.7,90.1z M390.7,3.7h13.4v36.6c0.8-0.8,1.3-1.2,1.8-1.7
		c11-11.2,21.9-22.4,32.9-33.6c0.9-1,1.8-1.4,3.2-1.4c5.1,0.1,10.4,0,16,0c-0.8,0.8-1.2,1.3-1.7,1.8c-9.7,9.7-19.2,19.4-29,29
		c-1.1,1.1-1.1,1.8-0.4,3c10.6,16.8,21,33.6,31.5,50.4c0.4,0.6,0.7,1.2,1.2,2.1c-0.7,0.1-1.2,0.1-1.8,0.1c-4.8,0-9.6,0-14.4,0
		c-1.3,0-1.9-0.5-2.6-1.5c-8.1-13.5-16.1-27-24.2-40.6c-0.4-0.6-0.7-1.2-1.2-1.9c-3.7,3.7-7.3,7.2-11,11c-0.5,0.5-0.6,1.4-0.6,2.1
		c0,9.5,0,18.9,0,28.4V90c-2.6,0-5.2,0-7.8,0c-1.8,0-4.3,0.5-5.3-0.5c-0.9-0.8-0.4-3.4-0.4-5.2V6.1C390.7,5.6,390.7,4.7,390.7,3.7z
		 M236.2,3.6c-10.9,10.8-21.4,21.3-32.1,31.9c11.5,18.3,22.6,36.2,34,54.6c-0.9,0-1.5,0.1-2.1,0.1c-4.6,0-9.4,0-14,0
		c-1.3,0-2.1-0.5-2.8-1.6c-8.1-13.5-16.1-27-24.2-40.6c-0.3-0.6-0.7-1.1-1.2-1.9c-2,2.1-3.8,4.4-6,6c-4.5,3.4-5.8,7.6-5.5,13.3
		c0.5,7.3,0.1,14.8,0.1,22.1V90H169V3.7h13.3v36c0.3,0.2,0.6,0.4,0.8,0.6c0.4-0.6,0.6-1.3,1-1.8C195,27.4,206,16.3,216.8,5
		c1-1,1.9-1.5,3.4-1.4c4.5,0.1,9.1,0,13.6,0C234.6,3.6,235.2,3.6,236.2,3.6L236.2,3.6z M262.7,18c6.7-9.9,13.9-18.1,27.2-15.7v14.8
		c-3.5,0.2-7,0.1-10.4,0.8c-8.2,1.7-14.5,9.2-15.8,18.2c-0.2,1.8-0.4,3.6-0.4,5.4c0,15.4,0,30.8,0,46.2v2.4h-13.7V3.9h13.1
		C262.7,8.5,262.7,13,262.7,18L262.7,18z"/>
</g>
</svg>
