<?xml version="1.0" encoding="utf-8"?>
<!-- Generator: Adobe Illustrator 22.0.1, SVG Export Plug-In . SVG Version: 6.00 Build 0)  -->
<svg version="1.1" id="Layer_1" xmlns="http://www.w3.org/2000/svg" xmlns:xlink="http://www.w3.org/1999/xlink" x="0px" y="0px"
	 viewBox="0 0 400 456" style="enable-background:new 0 0 400 456;" xml:space="preserve">
<style type="text/css">
	.st0{fill:#FFFFFF;}
</style>
<title>x</title>
<g id="Layer_2_1_">
	<g id="Layer_1-2">
		<path class="st0" d="M341.4,0h57.8L278.9,119.1c-43.6,43.1-114.2,43.1-157.8,0L0.7,0h57.9L150,90.5c27.7,27.3,72.2,27.3,99.9,0
			L341.4,0z"/>
		<path class="st0" d="M57.9,331.2H0l121.1-119.9c43.6-43.1,114.2-43.1,157.8,0L400,331.2h-57.8L250,240
			c-27.7-27.3-72.2-27.3-99.9,0L57.9,331.2z"/>
	</g>
</g>
<g>
	<path class="st0" d="M149.8,391.8h11l-22.9,23.1c-8.3,8.4-21.7,8.4-29.9,0l-22.8-23.1h11l17.4,17.6c5.2,5.2,13.6,5.3,18.8,0.1
		c0,0,0.1-0.1,0.1-0.1L149.8,391.8z M96,456H85l23-23.2c8.3-8.4,21.7-8.4,29.9,0l23,23.2h-11l-17.5-17.7c-5.2-5.2-13.6-5.3-18.8-0.1
		c0,0-0.1,0.1-0.1,0.1L96,456z"/>
	<path class="st0" d="M294.5,391.8L294.5,391.8c2.8,0.1,5.4,0.6,7.9,1.7c2.5,1,4.7,2.4,6.6,4.1c1.9,1.8,3.4,3.8,4.4,6.2
		c1.1,2.3,1.6,4.8,1.6,7.4c0,2.7-0.6,5.2-1.7,7.6c-1.1,2.3-2.6,4.4-4.5,6.2c-1.9,1.7-4.1,3.1-6.6,4.2h0c-2.5,1-5.2,1.5-8.1,1.5h-24
		v25.2h-8.4v-64H294.5z M294.1,422.9c1.7,0,3.3-0.3,4.8-0.9c1.5-0.6,2.9-1.4,4-2.5c1.1-1.1,2.1-2.3,2.7-3.7c0.7-1.4,1-2.9,1-4.6
		c0-1.6-0.3-3.1-1-4.5c-0.6-1.4-1.6-2.7-2.7-3.7c-1.1-1.1-2.5-1.9-4-2.5c-1.5-0.6-3.1-0.9-4.8-0.9h-24v23.3H294.1z"/>
	<path class="st0" d="M200.4,430.8c4.2,0,8.2,1.8,10.9,4.9l17.4,20.2h10.8l-23.8-28c-2.7-3.1-6.7-4.9-10.9-4.9h-16.5v-23.3h24
		c1.7,0,3.3,0.3,4.8,0.9c1.5,0.6,2.9,1.5,4,2.5l0,0c1.1,1,2,2.2,2.7,3.6c0.7,1.4,1,2.9,1,4.6c0,1.6-0.3,3.1-1,4.6
		c-0.4,0.8-0.9,1.6-1.4,2.3l5.5,6.1c0.1-0.1,0.1-0.1,0.2-0.2c1.6-1.7,2.9-3.7,3.7-5.8c0.9-2.2,1.4-4.5,1.4-6.9
		c0-2.6-0.5-5.1-1.6-7.4c-1.1-2.4-2.5-4.5-4.4-6.2c-1.9-1.7-4.1-3.1-6.5-4.2c-2.5-1-5.1-1.6-7.9-1.7h-28.6c-1.2,0-2.2,0.4-3,1.2
		c-0.8,0.7-1.2,1.7-1.2,2.7v60.1h8.4v-25H200.4z"/>
</g>
</svg>
